<mxfile host="app.diagrams.net" modified="2022-07-28T06:01:49.952Z" agent="5.0 (Macintosh; Intel Mac OS X 10_15_7) AppleWebKit/537.36 (KHTML, like Gecko) Chrome/103.0.5060.134 Safari/537.36 Edg/103.0.1264.71" etag="u9zLDV_xk1tYPEBBElL5" version="20.2.0" type="github">
  <diagram id="fslTk4-3Y_Ea6swXW31U" name="第 1 页">
    <mxGraphModel dx="1426" dy="769" grid="1" gridSize="10" guides="1" tooltips="1" connect="1" arrows="1" fold="1" page="1" pageScale="1" pageWidth="827" pageHeight="1169" math="0" shadow="0">
      <root>
        <mxCell id="0" />
        <mxCell id="1" parent="0" />
        <mxCell id="T20xJPjToy7h1viR-Pm8-3" value="" style="edgeStyle=orthogonalEdgeStyle;rounded=0;orthogonalLoop=1;jettySize=auto;html=1;" edge="1" parent="1" source="T20xJPjToy7h1viR-Pm8-1">
          <mxGeometry relative="1" as="geometry">
            <mxPoint x="380" y="250" as="targetPoint" />
          </mxGeometry>
        </mxCell>
        <mxCell id="T20xJPjToy7h1viR-Pm8-1" value="开始" style="rounded=0;whiteSpace=wrap;html=1;" vertex="1" parent="1">
          <mxGeometry x="320" y="110" width="120" height="60" as="geometry" />
        </mxCell>
        <mxCell id="T20xJPjToy7h1viR-Pm8-7" value="" style="edgeStyle=orthogonalEdgeStyle;rounded=0;orthogonalLoop=1;jettySize=auto;html=1;" edge="1" parent="1" source="T20xJPjToy7h1viR-Pm8-4" target="T20xJPjToy7h1viR-Pm8-6">
          <mxGeometry relative="1" as="geometry" />
        </mxCell>
        <mxCell id="T20xJPjToy7h1viR-Pm8-10" value="是" style="edgeLabel;html=1;align=center;verticalAlign=middle;resizable=0;points=[];" vertex="1" connectable="0" parent="T20xJPjToy7h1viR-Pm8-7">
          <mxGeometry x="-0.1333" y="-1" relative="1" as="geometry">
            <mxPoint as="offset" />
          </mxGeometry>
        </mxCell>
        <mxCell id="T20xJPjToy7h1viR-Pm8-12" value="" style="edgeStyle=orthogonalEdgeStyle;rounded=0;orthogonalLoop=1;jettySize=auto;html=1;" edge="1" parent="1" source="T20xJPjToy7h1viR-Pm8-4" target="T20xJPjToy7h1viR-Pm8-11">
          <mxGeometry relative="1" as="geometry" />
        </mxCell>
        <mxCell id="T20xJPjToy7h1viR-Pm8-13" value="否" style="edgeLabel;html=1;align=center;verticalAlign=middle;resizable=0;points=[];" vertex="1" connectable="0" parent="T20xJPjToy7h1viR-Pm8-12">
          <mxGeometry x="0.2522" y="2" relative="1" as="geometry">
            <mxPoint as="offset" />
          </mxGeometry>
        </mxCell>
        <mxCell id="T20xJPjToy7h1viR-Pm8-4" value="本地缓存存在" style="rhombus;whiteSpace=wrap;html=1;" vertex="1" parent="1">
          <mxGeometry x="285" y="250" width="190" height="80" as="geometry" />
        </mxCell>
        <mxCell id="T20xJPjToy7h1viR-Pm8-9" value="" style="edgeStyle=orthogonalEdgeStyle;rounded=0;orthogonalLoop=1;jettySize=auto;html=1;" edge="1" parent="1" source="T20xJPjToy7h1viR-Pm8-6" target="T20xJPjToy7h1viR-Pm8-8">
          <mxGeometry relative="1" as="geometry" />
        </mxCell>
        <mxCell id="T20xJPjToy7h1viR-Pm8-6" value="返回数据" style="whiteSpace=wrap;html=1;" vertex="1" parent="1">
          <mxGeometry x="320" y="390" width="120" height="60" as="geometry" />
        </mxCell>
        <mxCell id="T20xJPjToy7h1viR-Pm8-8" value="结束" style="whiteSpace=wrap;html=1;" vertex="1" parent="1">
          <mxGeometry x="320" y="510" width="120" height="60" as="geometry" />
        </mxCell>
        <mxCell id="T20xJPjToy7h1viR-Pm8-14" style="edgeStyle=orthogonalEdgeStyle;rounded=0;orthogonalLoop=1;jettySize=auto;html=1;exitX=0.5;exitY=1;exitDx=0;exitDy=0;entryX=1;entryY=0.5;entryDx=0;entryDy=0;" edge="1" parent="1" source="T20xJPjToy7h1viR-Pm8-11" target="T20xJPjToy7h1viR-Pm8-6">
          <mxGeometry relative="1" as="geometry" />
        </mxCell>
        <mxCell id="T20xJPjToy7h1viR-Pm8-11" value="回源（Redis、数据库）加载" style="whiteSpace=wrap;html=1;" vertex="1" parent="1">
          <mxGeometry x="590" y="260" width="120" height="60" as="geometry" />
        </mxCell>
      </root>
    </mxGraphModel>
  </diagram>
</mxfile>
